<?xml version="1.0" encoding="UTF-8"?>
<svg version="1.1" xmlns="http://www.w3.org/2000/svg" width="980" height="980">
<path d="M0 0 C323.4 0 646.8 0 980 0 C980 323.4 980 646.8 980 980 C656.6 980 333.2 980 0 980 C0 656.6 0 333.2 0 0 Z " fill="#000000" transform="translate(0,0)"/>
<path d="M0 0 C1.92392578 0.309375 1.92392578 0.309375 3.88671875 0.625 C13.35971331 2.2183812 22.51778003 4.68109246 31.73535156 7.35595703 C33.93951404 7.98279841 36.14989258 8.573854 38.3671875 9.15234375 C69.40297275 17.31509495 100.46802138 30.14425476 128.55078125 45.65771484 C131.25000215 47.13701274 133.96697111 48.57981211 136.6875 50.01953125 C155.97601341 60.26532857 174.49178831 71.56057482 192.6875 83.625 C193.57267807 84.20971573 193.57267807 84.20971573 194.47573853 84.8062439 C196.15805261 85.92001709 197.83499236 87.04189494 199.51171875 88.1640625 C200.95744263 89.13013428 200.95744263 89.13013428 202.43237305 90.11572266 C204.87478914 91.90811283 206.92680625 93.79759438 209 96 C204.65449236 94.49453387 201.11916187 92.16768069 197.375 89.5625 C188.53269363 83.54274712 179.30529243 78.26403592 170 73 C168.58714451 72.19547944 167.1743801 71.3907989 165.76171875 70.5859375 C161.85307313 68.36854617 157.94140849 66.15874777 154 64 C152.91630127 63.40566162 151.83260254 62.81132324 150.71606445 62.19897461 C141.86966976 57.39005625 132.88110416 53.03889699 123.6875 48.9375 C123.01069183 48.6342984 122.33388367 48.3310968 121.63656616 48.01870728 C96.65080947 36.83720766 70.96217816 27.17280803 44 22 C42.55173828 21.70029297 42.55173828 21.70029297 41.07421875 21.39453125 C39.52735562 21.07457356 37.97843336 20.76418155 36.42651367 20.46972656 C34.84098678 20.16279893 33.25908141 19.83634861 31.68212891 19.48803711 C23.72757946 17.83527393 15.9139036 17.64178598 7.8125 17.6875 C7.12679932 17.68965515 6.44109863 17.6918103 5.73461914 17.69403076 C-13.39658802 17.790591 -33.51737159 20.17308115 -48 34 C-48.69609375 34.65613281 -49.3921875 35.31226563 -50.109375 35.98828125 C-62.74628581 48.98149593 -63.50677709 64.08976125 -63.26953125 81.18359375 C-63.01812234 88.86085392 -61.46406627 95.71891292 -59 103 C-58.72091797 103.84949219 -58.44183594 104.69898438 -58.15429688 105.57421875 C-54.12538721 117.70371748 -49.36393882 128.92995516 -43 140 C-42.03885042 141.81100815 -41.08034286 143.62342198 -40.125 145.4375 C-32.22093462 159.75310778 -22.93648397 172.70959659 -12.87744141 185.59082031 C-11.22190804 187.71524206 -9.58184576 189.85015448 -7.94921875 191.9921875 C-2.54936952 199.03638408 3.19091038 205.63118995 9.2734375 212.09375 C13.13024112 216.20472692 16.91035033 220.3936163 20.4375 224.79296875 C23.74252944 228.86138814 27.27221537 231.91023663 31.55859375 234.93359375 C34.41100701 237.34787633 36.69177044 240.04725901 39.11938477 242.87963867 C42.13261788 246.27700718 45.42171109 249.35276419 48.75 252.4375 C49.4510083 253.09073242 50.1520166 253.74396484 50.87426758 254.41699219 C55.54332009 258.73545094 60.32057949 262.8649675 65.296875 266.828125 C67.83350632 268.86622762 70.30896943 270.95815925 72.77783203 273.0769043 C78.30784801 277.81866115 83.94643068 282.32801335 89.81640625 286.6484375 C92.05234559 288.30001478 94.26501163 289.96609553 96.46484375 291.6640625 C127.56229918 315.55181839 161.76662354 335.86938384 196.75 353.5 C197.53503906 353.89719238 198.32007813 354.29438477 199.12890625 354.70361328 C203.93249741 357.09211101 208.79906554 359.1702225 213.79443359 361.12451172 C216.22720634 362.09018839 218.58124107 363.17371053 220.9375 364.3125 C229.09060702 368.05603928 237.55168783 371.00188563 246 374 C246.7523291 374.26989746 247.5046582 374.53979492 248.27978516 374.81787109 C259.44625412 378.80007636 270.70512677 381.93234859 282.29785156 384.41650391 C284.06584642 384.7982809 285.83104952 385.19328553 287.59277344 385.60302734 C300.52632539 388.58374968 313.21416975 389.41199313 326.4375 389.5 C327.19136993 389.51044342 327.94523987 389.52088684 328.72195435 389.53164673 C348.16954962 389.74235662 367.59019199 385.49700252 382.23046875 371.93359375 C393.41452222 360.20397669 395.16057931 346.52928268 396 331 C396.66 331.33 397.32 331.66 398 332 C398.53588885 335.05456645 398.82070883 337.9113022 399 341 C399.07734375 342.16273438 399.1546875 343.32546875 399.234375 344.5234375 C399.84777795 361.5964862 394.9833664 379.20929497 383.6875 392.3125 C367.69992562 408.93851329 345.85704489 415.75697636 323.12890625 416.37109375 C320.27317121 416.42307272 317.41867555 416.43801205 314.5625 416.4375 C313.4307283 416.43959976 313.4307283 416.43959976 312.27609253 416.44174194 C286.89719534 416.40346808 261.27466027 411.568925 237.32421875 403.1640625 C234.54341508 402.19029106 231.75622285 401.25479922 228.95703125 400.3359375 C228.03978271 400.03413574 227.12253418 399.73233398 226.17749023 399.42138672 C224.36372298 398.82506669 222.54946353 398.23024079 220.73461914 397.63720703 C212.60176881 394.94545085 204.650004 392.00602794 197.0625 388 C193.40056163 386.13194789 189.82931949 384.50686295 185.9375 383.1875 C180.42688192 381.28309522 175.20397074 378.86111216 169.9375 376.375 C169.0911499 375.97821045 168.2447998 375.5814209 167.37280273 375.17260742 C166.18086304 374.60376831 166.18086304 374.60376831 164.96484375 374.0234375 C164.2493335 373.68231934 163.53382324 373.34120117 162.79663086 372.98974609 C161 372 161 372 159 370 C157.361468 369.28695462 155.72080182 368.57834501 154.06884766 367.89697266 C150.16958141 366.206401 146.44067622 364.17680677 142.6875 362.1875 C141.41531616 361.51448853 141.41531616 361.51448853 140.11743164 360.82788086 C134.29198308 357.727808 128.60432572 354.4844286 123 351 C121.64407071 350.17959709 120.28720575 349.36073971 118.9296875 348.54296875 C109.81598176 343.04000213 100.84469631 337.37775782 92.04248047 331.38916016 C89.75178725 329.8311821 87.45578911 328.28115817 85.16015625 326.73046875 C83.48141786 325.59166599 81.80302851 324.45234852 80.125 323.3125 C79.3522876 322.78994629 78.5795752 322.26739258 77.78344727 321.72900391 C72.3526635 318.02225073 67.16000241 314.07289276 62 310 C60.86623391 309.12286235 59.73097578 308.24764742 58.59375 307.375 C56.43930328 305.7210813 54.28553643 304.06631354 52.1328125 302.41015625 C50.27381406 300.97997915 48.41454497 299.55015356 46.5546875 298.12109375 C37.34137565 291.00471847 28.45651173 283.62073982 19.921875 275.70703125 C13.9490679 270.17340114 7.9251674 264.69602632 1.66796875 259.484375 C-0.09259321 257.91759855 -1.7556331 256.27122848 -3.41381836 254.59716797 C-5.39787908 252.5993651 -7.39860797 250.61873569 -9.3984375 248.63671875 C-11.05735698 246.98704484 -12.71620932 245.33730342 -14.375 243.6875 C-15.2 242.87087891 -16.025 242.05425781 -16.875 241.21289062 C-21.23309367 236.87209097 -25.43723903 232.46907205 -29.44482422 227.80249023 C-31.68943282 225.20092896 -34.03301778 222.70179022 -36.375 220.1875 C-45.19695409 210.62318673 -53.17826693 200.38948764 -61 190 C-61.48452637 189.36271973 -61.96905273 188.72543945 -62.46826172 188.06884766 C-69.66849238 178.55828412 -76.16955606 168.71805286 -82.3125 158.5 C-83.30963013 156.84242676 -83.30963013 156.84242676 -84.3269043 155.15136719 C-89 147.26517108 -89 147.26517108 -89 145 C-89.66 145 -90.32 145 -91 145 C-98.25371069 130.85933927 -98.25371069 130.85933927 -101.03686523 123.50585938 C-101.94646554 121.1392846 -102.91092863 118.80245132 -103.8828125 116.4609375 C-106.18947209 110.7014719 -107.96784915 104.83196047 -109.6875 98.875 C-109.99494141 97.84246094 -110.30238281 96.80992187 -110.61914062 95.74609375 C-116.61410363 75.15070664 -116.8496814 51.91247631 -107.2734375 32.5 C-98.52385319 16.94518346 -83.92622479 6.9919593 -67 2 C-45.61108963 -3.83809916 -21.77322311 -3.77433987 0 0 Z " fill="#FAFAFA" transform="translate(288,281)"/>
<path d="M0 0 C19 0 19 0 24.125 3.8125 C25.46612287 5.50359716 26.7563198 7.23600462 28 9 C29.57527219 10.92329745 31.15871022 12.83993393 32.75 14.75 C33.44609375 15.63171875 34.1421875 16.5134375 34.859375 17.421875 C37.10049785 20.12103756 39.502914 22.5371728 42 25 C43.76060872 26.88598541 45.510167 28.78233199 47.25 30.6875 C47.72816162 31.21077881 48.20632324 31.73405762 48.69897461 32.27319336 C52.40111911 36.32973959 56.07834608 40.40842506 59.74609375 44.49609375 C62.19450473 47.21607891 64.65900079 49.92095561 67.125 52.625 C70.53610006 56.37247973 73.90191399 60.15243628 77.2265625 63.9765625 C80.02202935 67.16610397 82.86972531 70.30826516 85.7109375 73.45703125 C89.15940762 77.28801086 92.58079129 81.14290898 96 85 C100.12641212 83.41366704 102.63254626 80.40792889 105.5 77.1875 C106.56882545 76.00764491 107.63784133 74.82796231 108.70703125 73.6484375 C109.25182129 73.04354492 109.79661133 72.43865234 110.35791016 71.81542969 C112.44428274 69.50881855 114.5565501 67.22704097 116.67163086 64.94677734 C126.56586366 54.38855248 126.56586366 54.38855248 135.9375 43.375 C136.618125 42.59125 137.29875 41.8075 138 41 C138.66 41 139.32 41 140 41 C140.26031006 40.41750488 140.52062012 39.83500977 140.78881836 39.23486328 C142.08167895 36.84928662 143.50242627 35.19669733 145.37890625 33.2421875 C146.04897705 32.53860107 146.71904785 31.83501465 147.40942383 31.11010742 C148.11993896 30.37252197 148.8304541 29.63493652 149.5625 28.875 C151.01638524 27.34837991 152.46951441 25.8210394 153.921875 24.29296875 C154.62376953 23.5561084 155.32566406 22.81924805 156.04882812 22.06005859 C162.66956114 15.18471913 162.66956114 15.18471913 168.60546875 7.73828125 C169.06566406 7.16464844 169.52585937 6.59101563 170 6 C170.66 6 171.32 6 172 6 C172.28875 5.38125 172.5775 4.7625 172.875 4.125 C174 2 174 2 176 0 C182.27 0 188.54 0 195 0 C195 66 195 132 195 200 C177.84 200 160.68 200 143 200 C143 170.96 143 141.92 143 112 C142.01 112.99 141.02 113.98 140 115 C139.34 115 138.68 115 138 115 C137.74259033 115.58410645 137.48518066 116.16821289 137.2199707 116.77001953 C135.89503981 119.19185639 134.4554098 120.75769869 132.48046875 122.6796875 C131.44116211 123.70255859 131.44116211 123.70255859 130.38085938 124.74609375 C129.29514648 125.79990234 129.29514648 125.79990234 128.1875 126.875 C123.53187651 131.41686618 119.08806106 135.93859106 115 141 C113.35570171 142.68873879 111.68615782 144.35305515 110 146 C108.58030635 147.39275449 107.16382884 148.78879233 105.75 150.1875 C105.06421875 150.86167969 104.3784375 151.53585937 103.671875 152.23046875 C101.92550889 153.90798995 101.92550889 153.90798995 101 156 C98.23667665 156.46055389 96.67522295 156.6485389 94 156 C90.92889538 153.69667154 88.49919829 150.90067593 86 148 C85.48179687 147.39929688 84.96359375 146.79859375 84.4296875 146.1796875 C83.34492984 144.92049645 82.26171673 143.65997388 81.1796875 142.3984375 C77.64377427 138.5076656 73.87300302 134.85336987 70.13671875 131.15625 C66.37077291 127.41460059 62.75809061 123.60610482 59.33203125 119.546875 C57.87356449 117.80762028 57.87356449 117.80762028 55.5625 115.625 C54 114 54 114 54 112 C53.34 112 52.68 112 52 112 C52 141.04 52 170.08 52 200 C34.84 200 17.68 200 0 200 C0 134 0 68 0 0 Z " fill="#FCFCFC" transform="translate(632,403)"/>
<path d="M0 0 C8.25 0 16.5 0 25 0 C30.41870735 9.75367323 30.41870735 9.75367323 32.15966797 13.99902344 C34.6216993 19.86154779 37.39644747 25.59829948 40.06054688 31.37109375 C40.53685547 32.40621094 41.01316406 33.44132812 41.50390625 34.5078125 C42.15081421 35.90990967 42.15081421 35.90990967 42.81079102 37.34033203 C43.56381495 39.02447138 44.2831776 40.72441622 44.95483398 42.44262695 C46.21447567 45.52479156 47.70352796 48.44528293 49.21875 51.41015625 C52.88096219 58.65026441 56.21743911 66.01754466 59.5 73.4375 C60.63365064 75.98516342 61.76987327 78.53167658 62.90625 81.078125 C63.44121094 82.27759766 63.97617187 83.47707031 64.52734375 84.71289062 C68.44374835 93.45467967 72.476313 102.13705908 76.859375 110.65625 C78.04240315 113.08712977 79.10973514 115.55637415 80.16503906 118.04492188 C85.52410391 130.5932819 91.34231206 142.93864952 97.28125 155.22070312 C99.08831639 158.96428949 100.8695861 162.69320387 102.49609375 166.51953125 C103.73966111 169.39750143 105.06686995 172.16548552 106.48046875 174.9609375 C106.92197266 175.84523438 107.36347656 176.72953125 107.81835938 177.640625 C108.73036269 179.46202963 109.65486535 181.27722963 110.59179688 183.0859375 C111.02943359 183.9728125 111.46707031 184.8596875 111.91796875 185.7734375 C112.31781982 186.56153809 112.7176709 187.34963867 113.12963867 188.16162109 C114 191 114 191 114 200 C97.17 200 80.34 200 63 200 C59.40254087 191.77723627 55.83823106 183.51469318 53 175 C26.6 175 0.2 175 -27 175 C-27.99 177.97 -28.98 180.94 -30 184 C-30.63828902 185.47880678 -31.30823429 186.94557181 -32.04296875 188.37890625 C-32.39423828 189.07177734 -32.74550781 189.76464844 -33.10742188 190.47851562 C-33.46384766 191.16623047 -33.82027344 191.85394531 -34.1875 192.5625 C-34.55552734 193.28501953 -34.92355469 194.00753906 -35.30273438 194.75195312 C-36.19624313 196.50415862 -37.09730775 198.25250788 -38 200 C-54.25866888 201.80215457 -64.14182266 199.27512317 -77.16064453 189.37255859 C-79.34622437 187.74164143 -81.62613799 186.33970431 -84 185 C-82.43963714 179.9205209 -80.77330147 175.54821441 -78 171 C-77.0253606 168.70296254 -76.12971299 166.37923594 -75.22265625 164.0546875 C-71.23291894 154.08671761 -66.73484377 144.31965521 -62.16015625 134.609375 C-60.35615677 130.7748729 -58.58105875 126.92727177 -56.80859375 123.078125 C-55.93522533 121.1849127 -55.06156362 119.29183603 -54.18780518 117.39880371 C-53.61004532 116.14546648 -53.03332265 114.89165054 -52.45770264 113.6373291 C-47.22191294 102.23186184 -47.22191294 102.23186184 -44.85546875 98.28125 C-42.93041754 94.87694892 -41.55730608 91.48476787 -40.14746094 87.84667969 C-38.11092209 82.79433011 -35.77913878 77.8759964 -33.47363281 72.94189453 C-32.63013392 71.13599156 -31.79161314 69.32776618 -30.953125 67.51953125 C-27.83435883 60.82077294 -24.62642978 54.18085003 -21.26879883 47.59838867 C-19.69262037 44.37051348 -18.40390636 41.07039924 -17.109375 37.72265625 C-15.52580696 33.83622343 -13.72520888 30.05740751 -11.93359375 26.26416016 C-7.83359762 17.56475348 -3.9338597 8.77553317 0 0 Z " fill="#FCFCFC" transform="translate(508,403)"/>
<path d="M0 0 C0.82242188 0.40605469 1.64484375 0.81210937 2.4921875 1.23046875 C13.61674719 7.29033273 23.49324667 16.55125166 29 28 C29.57814453 29.12341797 29.57814453 29.12341797 30.16796875 30.26953125 C34.33448853 38.8582778 35 46.44788472 35 56 C18.83 56 2.66 56 -14 56 C-14.99 53.03 -15.98 50.06 -17 47 C-20.64914233 42.1702528 -25.16657388 39.41832321 -31 38 C-43.56600848 36.66132182 -54.12979294 37.64378253 -64.37109375 45.40234375 C-66.86952891 47.8528473 -67.86618366 49.93120717 -68.30078125 53.40234375 C-68.32439161 58.51005074 -68.17263988 61.7698135 -65 66 C-65 66.66 -65 67.32 -65 68 C-53.03839483 72.84929939 -41.79497534 74.81797688 -29.02734375 76.2890625 C-7.16343284 78.81089138 17.23219637 82.13219467 31.8984375 100.359375 C41.49292829 114.04265722 42.71304001 130.35748156 40.52734375 146.48828125 C38.63379123 155.23037105 34.46963112 162.96761713 29 170 C24.88977463 169.41139976 22.00241358 167.0869342 18.75 164.6875 C18.14736328 164.24962158 17.54472656 163.81174316 16.92382812 163.3605957 C14.94277787 161.91561522 12.97042394 160.45943362 11 159 C9.95102539 158.22462891 9.95102539 158.22462891 8.88085938 157.43359375 C6.7506874 155.85583216 4.62423298 154.27324734 2.5 152.6875 C1.84225586 152.19660889 1.18451172 151.70571777 0.50683594 151.19995117 C-3.42822458 148.24162531 -7.24368794 145.18243105 -11 142 C-10.8453125 141.43023438 -10.690625 140.86046875 -10.53125 140.2734375 C-9.63035821 136.41815057 -9.2173818 132.91309098 -10 129 C-13.63405853 123.15725572 -20.50118071 121.50399934 -26.7421875 119.69140625 C-29.68500615 119.06685121 -31.96451121 119.00235195 -34.9375 119.125 C-42.48989283 118.69308211 -47.53211794 110.97488439 -52.28442383 105.77685547 C-54.53690279 103.44391938 -56.97537529 101.39132035 -59.46264648 99.31518555 C-61.28841892 97.75326144 -62.88594333 96.08327563 -64.4375 94.25 C-64.93121094 93.67765625 -65.42492187 93.1053125 -65.93359375 92.515625 C-67 91 -67 91 -67 89 C-68.32 88.34 -69.64 87.68 -71 87 C-71 86.34 -71 85.68 -71 85 C-71.83337891 84.66935547 -71.83337891 84.66935547 -72.68359375 84.33203125 C-78.03475595 81.25488739 -81.94658725 75.62046358 -86 71 C-86.45858398 70.47937988 -86.91716797 69.95875977 -87.38964844 69.42236328 C-93.08703254 62.92076359 -98.47014619 56.20500893 -103.6875 49.3125 C-104.48208618 48.26884277 -104.48208618 48.26884277 -105.29272461 47.20410156 C-109 42.24299446 -109 42.24299446 -109 40 C-109.66 40 -110.32 40 -111 40 C-112.96049028 37.45862372 -114.04646183 35.88277482 -113.875 32.625 C-110.16960062 21.50880187 -103.31189261 13.10600123 -94 6 C-93.23558594 5.41476562 -92.47117187 4.82953125 -91.68359375 4.2265625 C-66.11200565 -13.65402887 -27.30968258 -13.81788417 0 0 Z " fill="#FBFBFB" transform="translate(385,409)"/>
<path d="M0 0 C1.96646484 0.01353516 1.96646484 0.01353516 3.97265625 0.02734375 C4.95105469 0.03894531 5.92945313 0.05054688 6.9375 0.0625 C6.9375 0.3925 6.9375 0.7225 6.9375 1.0625 C6.31931396 1.15748779 5.70112793 1.25247559 5.06420898 1.3503418 C-20.03295461 5.27504905 -43.76753681 11.10896065 -60.09375 32.2265625 C-63.1624556 36.64695985 -65.70712178 41.22978224 -68.0625 46.0625 C-68.619375 47.17625 -69.17625 48.29 -69.75 49.4375 C-81.77178093 82.64051401 -71.45516145 119.66575592 -57.49609375 150.52539062 C-51.51712474 163.28292571 -44.98909271 175.67206687 -37.16943359 187.39990234 C-36.10291449 189.00179804 -35.06069874 190.61979336 -34.01953125 192.23828125 C-29.08687861 199.82924968 -23.64222775 206.9451245 -18.0625 214.0625 C-17.16917969 215.23232422 -17.16917969 215.23232422 -16.2578125 216.42578125 C-12.05872583 221.9207583 -7.62547236 227.20776245 -3.13012695 232.46069336 C-1.22356723 234.69250615 0.66761717 236.9353318 2.54125977 239.19482422 C10.06944422 248.2118641 18.16349151 256.56652918 26.50244141 264.83325195 C28.70411905 267.01647978 30.89749532 269.20779844 33.08984375 271.40039062 C34.5125475 272.81818346 35.93570832 274.23551784 37.359375 275.65234375 C38.00227478 276.29413071 38.64517456 276.93591766 39.30755615 277.59715271 C46.15326377 284.37257027 53.38920066 290.50514403 61.03125 296.36328125 C61.97484375 297.20439453 61.97484375 297.20439453 62.9375 298.0625 C62.9375 298.7225 62.9375 299.3825 62.9375 300.0625 C63.47117187 300.28679687 64.00484375 300.51109375 64.5546875 300.7421875 C67.72989854 302.50156673 70.33802888 304.81625297 73.0625 307.1875 C74.23488486 308.19233132 75.40806795 309.19623201 76.58203125 310.19921875 C77.15646973 310.69083496 77.7309082 311.18245117 78.32275391 311.68896484 C92.46905586 323.72209076 107.71566332 334.45081361 122.9375 345.0625 C123.52128418 345.47097168 124.10506836 345.87944336 124.70654297 346.30029297 C136.19730147 354.339442 147.70049762 362.35893118 159.890625 369.30859375 C162.58660244 370.86050897 165.24292165 372.4652753 167.89428711 374.09179688 C184.06747583 383.97406658 200.92536494 392.72477141 217.9375 401.0625 C219.79239974 401.99854874 221.6466613 402.93586425 223.5 403.875 C230.58625658 407.40055906 237.76125029 410.10190358 245.2421875 412.68359375 C247.97285778 413.70254365 250.57518989 414.77513951 253.22265625 415.9765625 C258.22829121 418.23493107 263.33514596 420.1397578 268.5 422 C269.94463623 422.52049927 269.94463623 422.52049927 271.41845703 423.05151367 C283.56620968 427.39461294 295.49188211 431.19433178 308.2265625 433.3828125 C311.40940748 433.96577569 314.44857645 434.69702555 317.5625 435.5625 C351.50403079 444.0478827 394.92546942 445.13298645 425.9375 427.0625 C440.82382263 417.59110081 452.41152377 403.37696737 456.44238281 385.86962891 C457.42837558 380.95701689 458.2150212 376.01999682 458.9375 371.0625 C459.2675 371.0625 459.5975 371.0625 459.9375 371.0625 C461.18615391 390.41663563 453.93346173 406.99720587 441.47265625 421.53125 C422.40807695 440.56645398 394.98235508 446.23951668 369.03831482 446.33831787 C367.22890608 446.33672522 365.41949721 446.3316753 363.61010742 446.32324219 C360.87461262 446.31249848 358.13977225 446.32321777 355.40429688 446.3359375 C341.93050177 446.34749059 329.07288684 445.23557794 315.9375 442.0625 C313.78565343 441.5901771 311.63325448 441.12036744 309.48046875 440.65234375 C296.34721527 437.72737687 283.43628333 434.50537627 270.625 430.375 C268.91123169 429.82283813 268.91123169 429.82283813 267.1628418 429.25952148 C261.62570102 427.42783746 256.2901981 425.41475005 250.99584961 422.97143555 C247.70065313 421.51632744 244.29333782 420.43803529 240.875 419.3125 C234.15313325 417.02558699 227.90230754 414.21929916 221.60498047 410.9519043 C217.79477818 408.97699504 213.99709222 407.20423262 210 405.625 C202.00015481 402.39890439 194.50301827 398.18190478 186.9375 394.0625 C185.89980469 393.50046875 184.86210937 392.9384375 183.79296875 392.359375 C182.00525029 391.38751089 180.21998585 390.41111572 178.4375 389.4296875 C176.82038276 388.54532651 175.1957364 387.67453812 173.5625 386.8203125 C150.44619057 374.61201158 122.52046351 359.64546351 103.9375 341.0625 C101.87764359 340.89964166 99.8140431 340.78371511 97.75 340.6875 C76.30550998 339.23326839 56.02662497 331.76901961 40.9375 316.0625 C38.00307456 312.54735639 35.41862129 308.90851429 32.9375 305.0625 C32.43089844 304.3303125 31.92429687 303.598125 31.40234375 302.84375 C28.93634329 298.76011075 27.82187258 295.48872727 27.9296875 290.7265625 C28.04423261 280.05887978 26.2584137 274.35783624 18.63867188 266.55786133 C14.97290921 263.07396164 11.23087971 259.69009158 7.43408203 256.34985352 C3.95782149 253.16492441 0.95586327 249.67403552 -2.0625 246.0625 C-3.55873392 244.41324216 -5.05815812 242.76686567 -6.5625 241.125 C-9.98587122 237.3315346 -13.18160894 233.44096633 -16.2734375 229.375 C-18.1850236 226.90412888 -20.18044789 224.51886579 -22.1875 222.125 C-26.35679024 217.05248397 -30.26314367 211.8096586 -34.125 206.5 C-34.70975098 205.70150635 -35.29450195 204.9030127 -35.89697266 204.08032227 C-36.43757324 203.33065186 -36.97817383 202.58098145 -37.53515625 201.80859375 C-38.02250244 201.13497803 -38.50984863 200.4613623 -39.01196289 199.76733398 C-40.0625 198.0625 -40.0625 198.0625 -40.0625 196.0625 C-40.7225 196.0625 -41.3825 196.0625 -42.0625 196.0625 C-42.52398437 195.24910156 -42.98546875 194.43570313 -43.4609375 193.59765625 C-46.84269083 187.65619634 -50.24749015 181.73380275 -53.74584961 175.86010742 C-61.56953249 162.69676479 -69.05516799 149.58707895 -74.0625 135.0625 C-74.3006543 134.39669922 -74.53880859 133.73089844 -74.78417969 133.04492188 C-79.81939929 118.96672866 -84.52426039 104.11250766 -85.0625 89.0625 C-85.09891602 88.39621582 -85.13533203 87.72993164 -85.17285156 87.04345703 C-86.35559457 63.74143194 -81.08002307 42.90695143 -65.4140625 25.19921875 C-54.99679726 14.17061166 -41.74080733 7.90849014 -27.375 3.75 C-26.49610107 3.49532959 -25.61720215 3.24065918 -24.71166992 2.97827148 C-16.44095157 0.69747111 -8.55625283 -0.07708336 0 0 Z " fill="#F3F3F3" transform="translate(238.0625,266.9375)"/>
<path d="M0 0 C5.35147245 3.34721375 10.66586869 6.71840837 15.8125 10.375 C38.68449581 26.51783272 63.56466775 41.66007625 89.04907227 53.24389648 C94.46572958 55.70793159 99.7060769 58.42939217 104.91796875 61.30004883 C112.10364318 65.23150481 119.58262176 67.95618952 127.3046875 70.62109375 C130.03535778 71.64004365 132.63768989 72.71263951 135.28515625 73.9140625 C140.29079121 76.17243107 145.39764596 78.0772578 150.5625 79.9375 C151.52559082 80.28449951 152.48868164 80.63149902 153.48095703 80.98901367 C165.62870968 85.33211294 177.55438211 89.13183178 190.2890625 91.3203125 C193.47190748 91.90327569 196.51107645 92.63452555 199.625 93.5 C233.56653079 101.9853827 276.98796942 103.07048645 308 85 C322.88632263 75.52860081 334.47402377 61.31446737 338.50488281 43.80712891 C339.49087558 38.89451689 340.2775212 33.95749682 341 29 C341.33 29 341.66 29 342 29 C343.24865391 48.35413563 335.99596173 64.93470587 323.53515625 79.46875 C304.47057695 98.50395398 277.04485508 104.17701668 251.10081482 104.27581787 C249.29140608 104.27422522 247.48199721 104.2691753 245.67260742 104.26074219 C242.93711262 104.24999848 240.20227225 104.26071777 237.46679688 104.2734375 C223.99300177 104.28499059 211.13538684 103.17307794 198 100 C195.84815343 99.5276771 193.69575448 99.05786744 191.54296875 98.58984375 C178.40971527 95.66487687 165.49878333 92.44287627 152.6875 88.3125 C151.54498779 87.94439209 150.40247559 87.57628418 149.2253418 87.19702148 C143.68820102 85.36533746 138.3526981 83.35225005 133.05834961 80.90893555 C129.76315313 79.45382744 126.35583782 78.37553529 122.9375 77.25 C116.21563325 74.96308699 109.96480754 72.15679916 103.66748047 68.8894043 C99.85727818 66.91449504 96.05959222 65.14173262 92.0625 63.5625 C84.06265481 60.33640439 76.56551827 56.11940478 69 52 C67.96230469 51.43796875 66.92460937 50.8759375 65.85546875 50.296875 C64.06775029 49.32501089 62.28248585 48.34861572 60.5 47.3671875 C58.88288276 46.48282651 57.2582364 45.61203812 55.625 44.7578125 C33.40936498 33.02518026 12.49742706 18.46646946 -8 4 C-5.50935112 3.31292445 -3.62113708 3 -1 3 C-0.67 2.01 -0.34 1.02 0 0 Z " fill="#E8E8E8" transform="translate(356,609)"/>
<path d="M0 0 C3.02416976 2.56126395 4.21801166 5.37664822 5.7421875 8.99609375 C6.25136719 10.19556641 6.76054688 11.39503906 7.28515625 12.63085938 C7.81525694 13.89967577 8.34520422 15.16855626 8.875 16.4375 C9.39647392 17.67150371 9.91860366 18.90523049 10.44140625 20.13867188 C12.45582867 24.90579998 14.45323607 29.67970155 16.43334961 34.46118164 C16.87428955 35.5258667 17.31522949 36.59055176 17.76953125 37.6875 C18.15729736 38.62851562 18.54506348 39.56953125 18.94458008 40.5390625 C19.82108365 42.58281823 20.804111 44.58049404 21.8125 46.5625 C23 49 23 49 23 52 C8.48 52 -6.04 52 -21 52 C-20.13008668 47.65043338 -19.09031878 44.79625187 -17.1875 40.875 C-14.8366628 35.89906127 -12.81445255 30.93427812 -10.9921875 25.74609375 C-7.82024867 16.96706621 -3.91659995 8.46652245 0 0 Z " fill="#090909" transform="translate(520,482)"/>
<path d="M0 0 C5.35147245 3.34721375 10.66586869 6.71840837 15.8125 10.375 C38.68449581 26.51783272 63.56466775 41.66007625 89.04907227 53.24389648 C94.46572958 55.70793159 99.7060769 58.42939217 104.91796875 61.30004883 C107.83173756 62.8942421 110.74872317 64.35551881 113.80859375 65.640625 C118.35143704 67.5756427 118.35143704 67.5756427 120 70 C120 71.32 120 72.64 120 74 C112.31155949 73.13195026 106.11749867 70.25980489 99.36328125 66.71875 C96.65047101 65.3324126 94.03819514 64.17397811 91.1875 63.125 C83.45517152 60.16476864 76.26037099 55.94799458 69 52 C67.95972656 51.43667969 66.91945313 50.87335937 65.84765625 50.29296875 C64.06258782 49.32232179 62.27993709 48.34721238 60.5 47.3671875 C58.88288276 46.48282651 57.2582364 45.61203812 55.625 44.7578125 C33.40936498 33.02518026 12.49742706 18.46646946 -8 4 C-5.50935112 3.31292445 -3.62113708 3 -1 3 C-0.67 2.01 -0.34 1.02 0 0 Z " fill="#ECECEC" transform="translate(356,609)"/>
<path d="M0 0 C0.33 0 0.66 0 1 0 C2.24865391 19.35413563 -5.00403827 35.93470587 -17.46484375 50.46875 C-28.99679855 61.98293599 -45.31127338 69.16836689 -61 73 C-63.43359375 72.62890625 -63.43359375 72.62890625 -65 72 C-64.505 71.01 -64.505 71.01 -64 70 C-66.31 69.67 -68.62 69.34 -71 69 C-71 68.67 -71 68.34 -71 68 C-69.14761719 67.70609375 -69.14761719 67.70609375 -67.2578125 67.40625 C-47.75095973 64.06554384 -27.88479029 57.04270219 -15.2578125 40.82421875 C-6.36137359 27.92161946 -2.23605006 15.34330286 0 0 Z " fill="#E5E5E5" transform="translate(697,638)"/>
<path d="M0 0 C0.495 1.485 0.495 1.485 1 3 C-7.26517244 5.58286639 -15.21234117 6.152978 -23.828125 6.1328125 C-24.73955261 6.13376923 -25.65098022 6.13472595 -26.59002686 6.13571167 C-28.50272695 6.13638814 -30.4154294 6.13457127 -32.328125 6.13037109 C-35.25526042 6.12499033 -38.18224414 6.1303469 -41.109375 6.13671875 C-42.97395867 6.13605836 -44.83854225 6.13477801 -46.703125 6.1328125 C-47.57608215 6.13483673 -48.44903931 6.13686096 -49.34844971 6.13894653 C-50.16319763 6.13579437 -50.97794556 6.13264221 -51.81738281 6.12939453 C-52.53049622 6.12859894 -53.24360962 6.12780334 -53.97833252 6.12698364 C-56.09045483 5.99431841 -57.96731641 5.57512422 -60 5 C-60 4.34 -60 3.68 -60 3 C-59.34 3 -58.68 3 -58 3 C-58 2.34 -58 1.68 -58 1 C-51.6686616 0.85568938 -45.33727766 0.71351593 -39.00585938 0.57275391 C-36.85676006 0.52473114 -34.70767119 0.47623822 -32.55859375 0.42724609 C-9.63799707 -0.09464482 -9.63799707 -0.09464482 0 0 Z " fill="#EEEEEE" transform="translate(634,707)"/>
<path d="M0 0 C26.38037875 12.37987057 51.65097623 28.62398231 75 46 C74.01 46.495 74.01 46.495 73 47 C71.72382813 46.12601562 71.72382813 46.12601562 70.421875 45.234375 C54.17898568 34.2064642 37.24342929 24.37004445 20 15 C19.30970703 14.62327148 18.61941406 14.24654297 17.90820312 13.85839844 C10.72505523 9.9449866 3.5469876 6.17767899 -4 3 C-2.68 2.67 -1.36 2.34 0 2 C0 1.34 0 0.68 0 0 Z " fill="#BDBDBD" transform="translate(422,330)"/>
<path d="M0 0 C1.96646484 0.01353516 1.96646484 0.01353516 3.97265625 0.02734375 C4.95105469 0.03894531 5.92945313 0.05054688 6.9375 0.0625 C6.9375 0.3925 6.9375 0.7225 6.9375 1.0625 C6.31931396 1.15748779 5.70112793 1.25247559 5.06420898 1.3503418 C-22.30012485 5.57258818 -22.30012485 5.57258818 -46.0625 19.0625 C-46.7225 19.0625 -47.3825 19.0625 -48.0625 19.0625 C-48.2171875 18.1034375 -48.2171875 18.1034375 -48.375 17.125 C-48.601875 16.444375 -48.82875 15.76375 -49.0625 15.0625 C-50.0525 14.7325 -51.0425 14.4025 -52.0625 14.0625 C-44.04403321 9.5074718 -36.11791614 6.21490715 -27.25 3.6875 C-25.94446167 3.31214111 -25.94446167 3.31214111 -24.61254883 2.92919922 C-16.38419052 0.67920252 -8.50747181 -0.07664389 0 0 Z " fill="#E8E8E8" transform="translate(238.0625,266.9375)"/>
<path d="M0 0 C12.82624686 4.71637777 25.59736132 10.39824088 37 18 C37 18.66 37 19.32 37 20 C30.96869116 20.65706942 26.72489103 18.35266828 21.4375 15.8125 C19.66143819 14.98422475 17.8840892 14.15870402 16.10546875 13.3359375 C15.23970215 12.9347168 14.37393555 12.53349609 13.48193359 12.12011719 C8.41698858 9.83426555 3.2219579 7.89629493 -2 6 C-1.34 5.67 -0.68 5.34 0 5 C-0.33 4.01 -0.66 3.02 -1 2 C-0.67 1.34 -0.34 0.68 0 0 Z " fill="#E7E7E7" transform="translate(385,312)"/>
<path d="M0 0 C6.435 2.97 6.435 2.97 13 6 C12.67 7.32 12.34 8.64 12 10 C11.34 10 10.68 10 10 10 C10 10.66 10 11.32 10 12 C11.32 12 12.64 12 14 12 C14.33 12.99 14.66 13.98 15 15 C9.6462535 13.44347945 4.99849053 11.0182491 0.125 8.375 C-0.65875 7.95476563 -1.4425 7.53453125 -2.25 7.1015625 C-4.16892057 6.0718978 -6.08477603 5.03652433 -8 4 C-6.1875 3.375 -6.1875 3.375 -4 3 C-3.01 3.66 -2.02 4.32 -1 5 C-0.67 3.35 -0.34 1.7 0 0 Z " fill="#E5E5E5" transform="translate(435,658)"/>
<path d="M0 0 C0.33 0 0.66 0 1 0 C1.98828643 15.3184397 -2.25319923 29.48147816 -11 42 C-12.74609375 43.87890625 -12.74609375 43.87890625 -14 45 C-15.29523009 40.57782388 -15.29523009 40.57782388 -13.99609375 38.03515625 C-13.22458984 37.05869141 -13.22458984 37.05869141 -12.4375 36.0625 C-4.55589066 24.93660031 -1.82594338 13.23008096 0 0 Z " fill="#DEDEDE" transform="translate(697,638)"/>
<path d="M0 0 C15.79930874 -0.23202781 31.32558682 -0.11480178 47 2 C48.27359375 2.16757812 49.5471875 2.33515625 50.859375 2.5078125 C56.79327625 3.38536128 56.79327625 3.38536128 59 4 C59.495 4.99 59.495 4.99 60 6 C52.96059273 5.58783132 46.03550516 5.04986819 39.0625 4 C31.43007989 2.91767152 23.82012682 2.59220674 16.11938477 2.34179688 C10.68284263 2.15822167 5.38618599 1.76945514 0 1 C0 0.67 0 0.34 0 0 Z " fill="#4C4C4C" transform="translate(237,266)"/>
<path d="M0 0 C0.71736328 0.05792725 1.43472656 0.11585449 2.17382812 0.17553711 C6.90303011 0.57124804 11.61607234 1.0651043 16.3125 1.75 C16.3125 2.08 16.3125 2.41 16.3125 2.75 C13.6725 2.75 11.0325 2.75 8.3125 2.75 C8.3125 3.41 8.3125 4.07 8.3125 4.75 C7.6525 4.75 6.9925 4.75 6.3125 4.75 C6.3125 5.41 6.3125 6.07 6.3125 6.75 C-0.01028971 6.42373505 -5.24214391 6.13495108 -10.6875 2.75 C-7.96227515 -1.30129212 -4.33890026 -0.42348855 0 0 Z " fill="#E4E4E4" transform="translate(567.6875,705.25)"/>
<path d="M0 0 C4.58716587 4.44381694 8.78762713 9.20228499 13 14 C12.01 14.495 12.01 14.495 11 15 C10.67 15.66 10.34 16.32 10 17 C9.87625 16.360625 9.7525 15.72125 9.625 15.0625 C9.41875 14.381875 9.2125 13.70125 9 13 C8.34 12.67 7.68 12.34 7 12 C7 12.66 7 13.32 7 14 C6.34 14 5.68 14 5 14 C4.67 14.66 4.34 15.32 4 16 C1.69 13.36 -0.62 10.72 -3 8 C-2.505 7.05125 -2.01 6.1025 -1.5 5.125 C0.14424369 2.27721834 0.14424369 2.27721834 0 0 Z " fill="#E8E8E8" transform="translate(231,496)"/>
<path d="M0 0 C3.91057652 0.11501696 5.81994165 1.45561152 8.4375 4.1875 C9.97265625 6.078125 9.97265625 6.078125 11 8 C10.375 11.4375 10.375 11.4375 9 14 C4.58889469 12.65216226 2.38349278 10.97248797 0 7 C-0.25 3.1875 -0.25 3.1875 0 0 Z " fill="#F2F2F2" transform="translate(203,465)"/>
<path d="M0 0 C4.95 1.32 9.9 2.64 15 4 C13.02 4.99 13.02 4.99 11 6 C10.67 6.66 10.34 7.32 10 8 C10.99 8.66 11.98 9.32 13 10 C7.54520815 9.43179252 3.08940744 8.05362055 -2 6 C-1.34 4.02 -0.68 2.04 0 0 Z " fill="#E3E3E3" transform="translate(511,691)"/>
<path d="M0 0 C0 0.33 0 0.66 0 1 C-0.65484375 1.11069824 -1.3096875 1.22139648 -1.984375 1.33544922 C-4.99013657 1.84543101 -7.99506332 2.36018096 -11 2.875 C-12.54494141 3.13603516 -12.54494141 3.13603516 -14.12109375 3.40234375 C-19.82270687 4.38287594 -25.409759 5.50837319 -31 7 C-30.67 6.01 -30.34 5.02 -30 4 C-30.66 3.67 -31.32 3.34 -32 3 C-21.28267056 0.07709197 -11.06460909 -0.1312009 0 0 Z " fill="#D1D1D1" transform="translate(245,267)"/>
<path d="M0 0 C3.92792344 0.44635494 7.47157148 1.18537962 11 3 C11.33 3.99 11.66 4.98 12 6 C8.1184112 8.58772586 6.46573523 7.87719799 2 7 C1.01 6.67 0.02 6.34 -1 6 C-1.042721 4.33388095 -1.04063832 2.66617115 -1 1 C-0.67 0.67 -0.34 0.34 0 0 Z " fill="#EDEDED" transform="translate(500,688)"/>
<path d="M0 0 C-0.32699984 2.9429986 -0.80058328 3.83835986 -3.14453125 5.73828125 C-4.02496094 6.25777344 -4.90539062 6.77726563 -5.8125 7.3125 C-6.68519531 7.84488281 -7.55789063 8.37726562 -8.45703125 8.92578125 C-11.23646682 10.09988998 -12.24935425 10.09641124 -15 9 C-13.712561 4.99463422 -11.27738872 3.68850649 -7.74609375 1.81640625 C-5.11427979 0.58587131 -2.8934892 0 0 0 Z " fill="#EDEDED" transform="translate(671,692)"/>
<path d="M0 0 C-1.5 2.9375 -1.5 2.9375 -4 6 C-6.76486571 6.83895734 -9.07439213 6.90247974 -12 7 C-11.67 6.01 -11.34 5.02 -11 4 C-13.31 3.67 -15.62 3.34 -18 3 C-18 2.67 -18 2.34 -18 2 C-11.93184478 0.77100654 -6.20104812 -0.27560214 0 0 Z " fill="#D4D4D4" transform="translate(644,704)"/>
<path d="M0 0 C0.33 0 0.66 0 1 0 C1.6283815 9.73991324 -0.70807628 18.60720547 -3 28 C-3.99 27.34 -4.98 26.68 -6 26 C-5.3503125 24.2984375 -5.3503125 24.2984375 -4.6875 22.5625 C-2.2226065 15.26172021 -1.22785745 7.58484989 0 0 Z " fill="#B8B8B8" transform="translate(697,638)"/>
<path d="M0 0 C0.66 0.33 1.32 0.66 2 1 C3.44753187 9.25093166 3.09219002 17.65168141 3 26 C2.67 26 2.34 26 2 26 C1.67 22.37 1.34 18.74 1 15 C0.34 15.99 -0.32 16.98 -1 18 C-0.505 9.09 -0.505 9.09 0 0 Z " fill="#7F7F7F" transform="translate(684,612)"/>
<path d="M0 0 C6.77520728 3.51214789 13.05717748 7.19806318 19 12 C18.01 12.495 18.01 12.495 17 13 C15.12060547 12.19555664 15.12060547 12.19555664 12.8671875 10.91015625 C12.06152344 10.45576172 11.25585938 10.00136719 10.42578125 9.53320312 C9.16314453 8.80520508 9.16314453 8.80520508 7.875 8.0625 C7.02550781 7.58103516 6.17601562 7.09957031 5.30078125 6.60351562 C3.19634989 5.40942817 1.09644809 4.20803163 -1 3 C-0.67 2.01 -0.34 1.02 0 0 Z " fill="#C6C6C6" transform="translate(452,347)"/>
<path d="M0 0 C3.3 1.65 6.6 3.3 10 5 C10 6.32 10 7.64 10 9 C5.25981099 7.16508812 0.63586749 5.08058541 -4 3 C-2.68 2.67 -1.36 2.34 0 2 C0 1.34 0 0.68 0 0 Z " fill="#D1D1D1" transform="translate(422,330)"/>
<path d="M0 0 C2.7019433 0.36512747 4.58390852 0.69869237 6.8125 2.3125 C8 4 8 4 8 8 C5.69 7.34 3.38 6.68 1 6 C1 5.01 1 4.02 1 3 C0.34 2.67 -0.32 2.34 -1 2 C-0.67 1.34 -0.34 0.68 0 0 Z " fill="#F4F4F4" transform="translate(468,675)"/>
<path d="M0 0 C0.33 0.99 0.66 1.98 1 3 C-1.66067592 7.16453623 -5.36269378 10.18293791 -9.09765625 13.3515625 C-10.81221871 14.83728192 -12.41884241 16.37451089 -14 18 C-14.66 17.67 -15.32 17.34 -16 17 C-15.43152344 16.443125 -14.86304688 15.88625 -14.27734375 15.3125 C-9.29146714 10.38488906 -4.53204946 5.34810981 0 0 Z " fill="#DBDBDB" transform="translate(754,462)"/>
<path d="M0 0 C0.66 0.99 1.32 1.98 2 3 C1.5153125 3.4125 1.030625 3.825 0.53125 4.25 C-4.54250509 8.62123516 -9.32152134 13.20953648 -14 18 C-14.66 17.67 -15.32 17.34 -16 17 C-15.34773437 16.35933594 -14.69546875 15.71867188 -14.0234375 15.05859375 C-9.116741 10.20255636 -4.39695434 5.32262894 0 0 Z " fill="#333333" transform="translate(749,540)"/>
<path d="M0 0 C0.99 0.66 1.98 1.32 3 2 C3.1875 5.625 3.1875 5.625 3 9 C2.01 9.33 1.02 9.66 0 10 C-0.66 9.67 -1.32 9.34 -2 9 C-2.75 6.625 -2.75 6.625 -3 4 C-1 1 -1 1 0 0 Z " fill="#F8F8F8" transform="translate(194,446)"/>
<path d="M0 0 C0.66 0.33 1.32 0.66 2 1 C1.67 2.32 1.34 3.64 1 5 C1.66 5.33 2.32 5.66 3 6 C-0.75 9 -0.75 9 -3 9 C-3.103125 8.360625 -3.20625 7.72125 -3.3125 7.0625 C-3.539375 6.381875 -3.76625 5.70125 -4 5 C-4.99 4.67 -5.98 4.34 -7 4 C-1.7265625 0.77734375 -1.7265625 0.77734375 0 0 Z " fill="#DEDEDE" transform="translate(193,277)"/>
<path d="M0 0 C1.52519276 0.08937803 3.04681929 0.24537146 4.5625 0.4375 C5.80193359 0.59025391 5.80193359 0.59025391 7.06640625 0.74609375 C7.70449219 0.82988281 8.34257813 0.91367187 9 1 C8.67 1.99 8.34 2.98 8 4 C5.03 4 2.06 4 -1 4 C-1 1 -1 1 0 0 Z " fill="#F1F1F1" transform="translate(522,696)"/>
<path d="M0 0 C1.32 0.66 2.64 1.32 4 2 C2.86695008 5.39914975 1.87481525 6.05254451 -1 8 C-2.37562854 6.71034824 -3.70766393 5.37310707 -5 4 C-5 3.34 -5 2.68 -5 2 C-4.360625 1.855625 -3.72125 1.71125 -3.0625 1.5625 C-1.02454854 1.18992819 -1.02454854 1.18992819 0 0 Z " fill="#EAEAEA" transform="translate(250,519)"/>
<path d="M0 0 C1.84765625 0.33984375 1.84765625 0.33984375 4.0625 0.9375 C5.16271484 1.22947266 5.16271484 1.22947266 6.28515625 1.52734375 C7.13400391 1.76130859 7.13400391 1.76130859 8 2 C7.071875 2.680625 7.071875 2.680625 6.125 3.375 C3.94080167 4.97108919 3.94080167 4.97108919 2 7 C-1.44165321 6.64700993 -3.06872538 5.95418308 -6 4 C-3.03 4.495 -3.03 4.495 0 5 C-0.2784375 4.0409375 -0.2784375 4.0409375 -0.5625 3.0625 C-0.706875 2.381875 -0.85125 1.70125 -1 1 C-0.67 0.67 -0.34 0.34 0 0 Z " fill="#D8D8D8" transform="translate(476,678)"/>
<path d="M0 0 C0.33 1.65 0.66 3.3 1 5 C0.01 5.66 -0.98 6.32 -2 7 C-3.65 5.35 -5.3 3.7 -7 2 C-4 0 -4 0 0 0 Z " fill="#E7E7E7" transform="translate(189,282)"/>
<path d="M0 0 C0.33 0.66 0.66 1.32 1 2 C8.59 2 16.18 2 24 2 C24.33 1.34 24.66 0.68 25 0 C25 1.32 25 2.64 25 4 C16.75 3.67 8.5 3.34 0 3 C0 2.01 0 1.02 0 0 Z " fill="#111111" transform="translate(509,400)"/>
<path d="M0 0 C0.66 0.66 1.32 1.32 2 2 C-1.625 5 -1.625 5 -5 5 C-5.66 4.34 -6.32 3.68 -7 3 C-7.66 2.67 -8.32 2.34 -9 2 C-5.54754176 -0.30163882 -4.05261287 -0.34490322 0 0 Z " fill="#F5F5F5" transform="translate(423,651)"/>
<path d="M0 0 C3.83990988 1.38375131 6.97052564 3.16309349 10.3125 5.5 C11.19550781 6.1084375 12.07851563 6.716875 12.98828125 7.34375 C13.65214844 7.8903125 14.31601562 8.436875 15 9 C15 9.66 15 10.32 15 11 C10.92584833 9.59790456 8.01720177 7.65552322 4.6875 4.9375 C3.80449219 4.22464844 2.92148437 3.51179688 2.01171875 2.77734375 C1.34785156 2.19082031 0.68398438 1.60429687 0 1 C0 0.67 0 0.34 0 0 Z " fill="#4F4F4F" transform="translate(497,377)"/>
<path d="M0 0 C0.99 0.99 1.98 1.98 3 3 C2.67 3.99 2.34 4.98 2 6 C1.01 6.33 0.02 6.66 -1 7 C-1.33 7.99 -1.66 8.98 -2 10 C-3.5625 8.1875 -3.5625 8.1875 -5 6 C-4.67 5.01 -4.34 4.02 -4 3 C-2.68 3 -1.36 3 0 3 C0 2.01 0 1.02 0 0 Z " fill="#E1E1E1" transform="translate(219,481)"/>
<path d="M0 0 C4.455 2.97 4.455 2.97 9 6 C8.01 6.66 7.02 7.32 6 8 C2.535 6.02 2.535 6.02 -1 4 C-0.67 2.68 -0.34 1.36 0 0 Z " fill="#E6E6E6" transform="translate(378,568)"/>
<path d="M0 0 C1.17539996 0.92652701 2.34010577 1.86663387 3.5 2.8125 C4.1496875 3.33457031 4.799375 3.85664062 5.46875 4.39453125 C7 6 7 6 7 9 C3.2047869 7.50902342 1.38957269 5.24299151 -1 2 C-0.67 1.34 -0.34 0.68 0 0 Z " fill="#191919" transform="translate(334,516)"/>
<path d="M0 0 C0.66 0.33 1.32 0.66 2 1 C1.67 1.99 1.34 2.98 1 4 C0.34 4 -0.32 4 -1 4 C-1 4.66 -1 5.32 -1 6 C0.32 6 1.64 6 3 6 C3.33 6.99 3.66 7.98 4 9 C-1.75 7.125 -1.75 7.125 -4 6 C-3.67 5.01 -3.34 4.02 -3 3 C-2.34 3 -1.68 3 -1 3 C-0.67 2.01 -0.34 1.02 0 0 Z " fill="#D0D0D0" transform="translate(446,664)"/>
<path d="M0 0 C0.99 0.495 0.99 0.495 2 1 C1.67 1.66 1.34 2.32 1 3 C0.67 2.01 0.34 1.02 0 0 Z M2 0 C4.475 0.495 4.475 0.495 7 1 C5.68 1.33 4.36 1.66 3 2 C2.67 1.34 2.34 0.68 2 0 Z M-6 0 C-5.34 0.33 -4.68 0.66 -4 1 C-4 1.66 -4 2.32 -4 3 C-3.01 3 -2.02 3 -1 3 C-1 3.66 -1 4.32 -1 5 C-3.91517292 3.92598892 -5.77810176 3.22189824 -8 1 C-7.34 0.67 -6.68 0.34 -6 0 Z " fill="#DADADA" transform="translate(422,653)"/>
<path d="M0 0 C0.33 0 0.66 0 1 0 C1.12117188 0.67546875 1.24234375 1.3509375 1.3671875 2.046875 C1.53476562 2.93890625 1.70234375 3.8309375 1.875 4.75 C2.03742188 5.63171875 2.19984375 6.5134375 2.3671875 7.421875 C2.96796264 9.86947744 3.77997117 11.80599857 5 14 C3.68 14.33 2.36 14.66 1 15 C-0.32286246 10.03926578 -0.08893197 5.08888488 0 0 Z " fill="#C6C6C6" transform="translate(315,462)"/>
<path d="M0 0 C0.99 0.33 1.98 0.66 3 1 C3 1.66 3 2.32 3 3 C3.66 3 4.32 3 5 3 C5.33 2.34 5.66 1.68 6 1 C5.67 3.31 5.34 5.62 5 8 C2.5 5.6875 2.5 5.6875 0 3 C0 2.01 0 1.02 0 0 Z " fill="#161616" transform="translate(673,425)"/>
<path d="M0 0 C0.66 0.33 1.32 0.66 2 1 C2 1.66 2 2.32 2 3 C0.5390625 4.21875 0.5390625 4.21875 -1.375 5.5 C-3.48267274 6.92246226 -5.19154973 8.19154973 -7 10 C-7.66 9.34 -8.32 8.68 -9 8 C-3.25 3 -3.25 3 -1 3 C-0.67 2.01 -0.34 1.02 0 0 Z " fill="#242424" transform="translate(678,688)"/>
<path d="M0 0 C3.15330554 0.60694155 5.18888867 1.6416665 7.75 3.5625 C8.67039062 4.24505859 8.67039062 4.24505859 9.609375 4.94140625 C10.29773438 5.46541016 10.29773438 5.46541016 11 6 C10.01 6.495 10.01 6.495 9 7 C6.8359375 6.00390625 6.8359375 6.00390625 4.375 4.5625 C3.55773437 4.08941406 2.74046875 3.61632812 1.8984375 3.12890625 C1.27195312 2.75636719 0.64546875 2.38382812 0 2 C0 1.34 0 0.68 0 0 Z " fill="#CDCDCD" transform="translate(460,353)"/>
<path d="M0 0 C-0.33 0.99 -0.66 1.98 -1 3 C-2.98 3.33 -4.96 3.66 -7 4 C-7 3.01 -7 2.02 -7 1 C-4.53721199 -0.231394 -2.7204945 -0.07159196 0 0 Z " fill="#F0F0F0" transform="translate(215,271)"/>
<path d="M0 0 C2.3125 0.1875 2.3125 0.1875 5 1 C6.8125 3.5625 6.8125 3.5625 8 6 C5 6 5 6 3.61328125 4.6875 C2.40885417 3.125 1.20442708 1.5625 0 0 Z " fill="#DADADA" transform="translate(264,514)"/>
<path d="M0 0 C1.65 0 3.3 0 5 0 C5 0.66 5 1.32 5 2 C5.99 2.33 6.98 2.66 8 3 C8 3.99 8 4.98 8 6 C4.63408134 4.55746343 2.48952921 2.66735273 0 0 Z " fill="#212121" transform="translate(384,572)"/>
<path d="M0 0 C1.98 1.65 3.96 3.3 6 5 C5.01 5.66 4.02 6.32 3 7 C1.68 5.68 0.36 4.36 -1 3 C-0.67 2.01 -0.34 1.02 0 0 Z " fill="#1E1E1E" transform="translate(258,536)"/>
<path d="M0 0 C2.375 0.25 2.375 0.25 5 1 C6.3125 3.0625 6.3125 3.0625 7 5 C4.625 4.75 4.625 4.75 2 4 C0.6875 1.9375 0.6875 1.9375 0 0 Z " fill="#E8E8E8" transform="translate(431,336)"/>
<path d="M0 0 C0.66 0.33 1.32 0.66 2 1 C-0.51407619 5.28324091 -2.12314139 7.64531705 -7 9 C-5.625 6.5 -5.625 6.5 -4 4 C-3.34 4 -2.68 4 -2 4 C-1.34 2.68 -0.68 1.36 0 0 Z " fill="#323232" transform="translate(186,289)"/>
<path d="M0 0 C0.99 0 1.98 0 3 0 C5.09230769 4.43076923 5.09230769 4.43076923 4.625 7.3125 C4.41875 7.869375 4.2125 8.42625 4 9 C0 2.25 0 2.25 0 0 Z " fill="#141414" transform="translate(200,452)"/>
<path d="M0 0 C2.5 2.3125 2.5 2.3125 5 5 C5 5.99 5 6.98 5 8 C3.68 8.33 2.36 8.66 1 9 C1.20625 8.401875 1.4125 7.80375 1.625 7.1875 C2.30671915 4.71549154 2.30671915 4.71549154 0 2 C0 1.34 0 0.68 0 0 Z " fill="#D7D7D7" transform="translate(656,409)"/>
<path d="M0 0 C2.6875 0.3125 2.6875 0.3125 5 1 C4.34 2.32 3.68 3.64 3 5 C1.02 4.34 -0.96 3.68 -3 3 C-1.8125 1.4375 -1.8125 1.4375 0 0 Z " fill="#E1E1E1" transform="translate(404,322)"/>
<path d="M0 0 C0.99 0.33 1.98 0.66 3 1 C3.33 1.99 3.66 2.98 4 4 C2.02 4.33 0.04 4.66 -2 5 C-1.34 3.35 -0.68 1.7 0 0 Z " fill="#FBFBFB" transform="translate(447,665)"/>
<path d="M0 0 C1.98 0.66 3.96 1.32 6 2 C6 2.99 6 3.98 6 5 C4.68 5.33 3.36 5.66 2 6 C1.34 4.02 0.68 2.04 0 0 Z " fill="#0D0D0D" transform="translate(368,312)"/>
<path d="M0 0 C0.66 0.66 1.32 1.32 2 2 C1.625 5.625 1.625 5.625 1 9 C0.01 8.34 -0.98 7.68 -2 7 C-1.34 4.69 -0.68 2.38 0 0 Z " fill="#A9A9A9" transform="translate(693,657)"/>
<path d="M0 0 C2.97 0.495 2.97 0.495 6 1 C5.67 1.99 5.34 2.98 5 4 C3.35 4.33 1.7 4.66 0 5 C-0.33 4.01 -0.66 3.02 -1 2 C-0.67 1.34 -0.34 0.68 0 0 Z " fill="#E7E7E7" transform="translate(538,657)"/>
<path d="M0 0 C2.97 0.495 2.97 0.495 6 1 C6.33 2.65 6.66 4.3 7 6 C5.83054208 5.19152271 4.66449539 4.37810888 3.5 3.5625 C2.8503125 3.11003906 2.200625 2.65757812 1.53125 2.19140625 C1.0259375 1.79824219 0.520625 1.40507813 0 1 C0 0.67 0 0.34 0 0 Z " fill="#D3D3D3" transform="translate(312,560)"/>
<path d="M0 0 C0.33 0.99 0.66 1.98 1 3 C-0.32 4.32 -1.64 5.64 -3 7 C-3.99 6.67 -4.98 6.34 -6 6 C-4.02 4.02 -2.04 2.04 0 0 Z " fill="#D5D5D5" transform="translate(754,462)"/>
<path d="M0 0 C1.32 0 2.64 0 4 0 C3.34 1.32 2.68 2.64 2 4 C0.68 3.67 -0.64 3.34 -2 3 C-1.34 2.01 -0.68 1.02 0 0 Z " fill="#FAFAFA" transform="translate(522,696)"/>
<path d="M0 0 C0.33 0 0.66 0 1 0 C1.25 2.3125 1.25 2.3125 1 5 C-1 6.8125 -1 6.8125 -3 8 C-3.66 7.67 -4.32 7.34 -5 7 C-4.19152271 5.83054208 -3.37810888 4.66449539 -2.5625 3.5 C-2.11003906 2.8503125 -1.65757812 2.200625 -1.19140625 1.53125 C-0.79824219 1.0259375 -0.40507813 0.520625 0 0 Z " fill="#D3D3D3" transform="translate(677,644)"/>
<path d="M0 0 C1.875 0.3125 1.875 0.3125 4 1 C4.66 1.99 5.32 2.98 6 4 C5.34 4.66 4.68 5.32 4 6 C2.62437146 4.71034824 1.29233607 3.37310707 0 2 C0 1.34 0 0.68 0 0 Z " fill="#EFEFEF" transform="translate(328,528)"/>
<path d="M0 0 C2.4375 0.375 2.4375 0.375 5 1 C5.33 1.66 5.66 2.32 6 3 C5.34 3.66 4.68 4.32 4 5 C2 3.625 2 3.625 0 2 C0 1.34 0 0.68 0 0 Z " fill="#1A1A1A" transform="translate(455,347)"/>
<path d="M0 0 C-0.309375 0.598125 -0.61875 1.19625 -0.9375 1.8125 C-2.10209704 4.08956772 -2.10209704 4.08956772 -3 7 C-3.66 7 -4.32 7 -5 7 C-5.1875 4.625 -5.1875 4.625 -5 2 C-2 0 -2 0 0 0 Z " fill="#E7E7E7" transform="translate(210,288)"/>
</svg>
